<?xml version="1.0" encoding="UTF-8"?>
<svg id="Layer_1" xmlns="http://www.w3.org/2000/svg" version="1.1" viewBox="0 0 94.3 95.5">
  <!-- Generator: Adobe Illustrator 30.1.0, SVG Export Plug-In . SVG Version: 2.1.1 Build 136)  -->
  <defs>
    <style>
      .st0 {
        fill: none;
        stroke: #fff;
        stroke-linecap: round;
        stroke-linejoin: round;
        stroke-width: 2px;
      }
    </style>
  </defs>
  <g>
    <polygon class="st0" points="23.8 72.8 18.7 64.3 20.5 48.4 33.6 23.9 49.2 22 58.2 47.5 54.3 62 54.3 76.1 23.8 72.8"/>
    <polyline class="st0" points="54.3 76.1 73.9 71.8 75.4 58.7 68.5 34.6 59.2 23.9 49.2 22"/>
    <line class="st0" x1="58.2" y1="47.5" x2="65.9" y2="44.7"/>
  </g>
  <line class="st0" x1="33.6" y1="23.9" x2="36.4" y2="29.9"/>
  <polyline class="st0" points="18.7 64.3 24.8 61.8 28.6 65"/>
  <polyline class="st0" points="54.3 62 48.7 62.9 44 60"/>
  <path class="st0" d="M45,53.5h-11.5c-1.2,0-2-1.2-1.5-2.3l4.8-11.4c.5-1.2,2.2-1.4,2.9-.3l3.7,5.6c.7,1.1,0,2.5-1.4,2.5h-4.8"/>
</svg>